# xmcd
#
# Track frame offsets:
#	150
#	15335
#	28464
#	41576
#	55212
#	74646
#	86497
#	98588
#	111158
#	127400
#	143940
#	153102
#	165810
#	181940
#	197660
#
# Disc length: 2788 seconds
#
# Revision: 1
# Processed by: cddbd v1.5.2PL0 Copyright (c) Steve Scherf et al.
# Submitted via: audiograbber 1.83.01
#
DISCID=c70ae20f
DTITLE=Various Artist - Country Hits - Sony Music [CD2]
DYEAR=2010
DGENRE=Country
TTITLE0=Kenny Chesney - Don't Happen Twice
TTITLE1=John Anderson - Straight Tequila Night
TTITLE2=Collin Raye - My Kind of Girl
TTITLE3=Alabama - High Cotton
TTITLE4=Alison Krauss and Union Station - When You Say Nothing At All
TTITLE5=Johnny Cash - Ring of Fire
TTITLE6=Mindy McCready - A Girl's Gotta Do (What a Girl's Gotta Do)
TTITLE7=Aaron Tippin - There Ain't Nothin' Wrong With the Radio
TTITLE8=Diamond Rio - One More Day
TTITLE9=David Allan Coe - Mona Lisa Lost Her Smile
TTITLE10=Charley Pride - Kiss an Angel Good Mornin'
TTITLE11=Shenandoah - If Bubba Can Dance (I Can Too)
TTITLE12=Exile - Nobody's Talking
TTITLE13=Eddy Raven - Shine, Shine, Shine
TTITLE14=Willie Nelson - On the Road Again
EXTD=
EXTT0=
EXTT1=
EXTT2=
EXTT3=
EXTT4=
EXTT5=
EXTT6=
EXTT7=
EXTT8=
EXTT9=
EXTT10=
EXTT11=
EXTT12=
EXTT13=
EXTT14=
PLAYORDER=
